<svg fill="#228BE6" xmlns="http://www.w3.org/2000/svg"  viewBox="0 0 24 24" width="24px" height="24px"><path d="M 12 2.5 C 11.781 2.5 11.561234 2.557375 11.365234 2.671875 L 2.3652344 7.9667969 C 1.7702344 8.3167969 1.572875 9.0827344 1.921875 9.6777344 C 2.154875 10.072734 2.572 10.270484 3 10.271484 L 3 19.748047 C 3 20.439047 3.56 21 4.25 21 L 8 21 L 8 12.25 C 8 11.56 8.56 11 9.25 11 L 14.75 11 C 15.44 11 16 11.56 16 12.25 L 16 21 L 19.75 21 C 20.44 21 21 20.44 21 19.75 L 21 10.294922 C 21.428 10.294922 21.845125 10.073734 22.078125 9.6777344 C 22.427125 9.0827344 22.229766 8.3167969 21.634766 7.9667969 L 12.634766 2.671875 C 12.438766 2.557375 12.219 2.5 12 2.5 z M 10.5 13.5 L 10.5 21 L 13.5 21 L 13.5 13.5 L 10.5 13.5 z"/></svg>